# xmcd
#
# Track frame offsets: 
#        150
#        20190
#        41267
#        59980
#        81650
#        98882
#        115387
#        131810
#        154440
#        179787
#        195207
#
# Disc length: 2910 seconds
#
# Revision: 2
# Processed by: cddbd v1.5.2PL0 Copyright (c) Steve Scherf et al.
# Submitted via: ExactAudioCopyFreeDBPlugin 1.0
#
DISCID=a80b5c0b
DTITLE=Larry McCray - Delta Hurricane
DYEAR=1993
DGENRE=Blues
TTITLE0=Delta Hurricane
TTITLE1=Adding Up
TTITLE2=Last Four Nickels
TTITLE3=Soul Shine
TTITLE4=Not That Much
TTITLE5=Last Hand of the Night
TTITLE6=Witchin' Moon
TTITLE7=Blue River
TTITLE8=Hole In My Heart
TTITLE9=Three Straight Days of Rain
TTITLE10=Blues in the City
EXTD=
EXTT0=
EXTT1=
EXTT2=
EXTT3=
EXTT4=
EXTT5=
EXTT6=
EXTT7=
EXTT8=
EXTT9=
EXTT10=
PLAYORDER=
